<?xml version="1.0" encoding="UTF-8"?>
<svg width="21px" height="21px" viewBox="0 0 21 21" version="1.1" xmlns="http://www.w3.org/2000/svg" xmlns:xlink="http://www.w3.org/1999/xlink">
    <title>Group 14</title>
    <g id="Symbols" stroke="none" stroke-width="1" fill="none" fill-rule="evenodd">
        <g id="Group-14" fill="#000000" fill-rule="nonzero">
            <path d="M8.77984851,16.5145873 C7.67704246,16.5145873 6.77984851,17.4117812 6.77984851,18.5145873 C6.77984851,19.6173933 7.67704246,20.5145873 8.77984851,20.5145873 C9.88265456,20.5145873 10.7798485,19.6173933 10.7798485,18.5145873 C10.7798485,17.4117812 9.88262362,16.5145873 8.77984851,16.5145873 Z" id="Shape"></path>
            <path d="M15.7798485,16.5145873 C14.6770425,16.5145873 13.7798485,17.4117812 13.7798485,18.5145873 C13.7798485,19.6173933 14.6770425,20.5145873 15.7798485,20.5145873 C16.8826546,20.5145873 17.7798485,19.6173933 17.7798485,18.5145873 C17.7798485,17.4117812 16.8826546,16.5145873 15.7798485,16.5145873 Z" id="Shape"></path>
            <path d="M0.401118677,0.000486172184 L0.485516527,0.0126460983 L3.23196794,0.496997998 C3.95944863,0.6033393 4.11433494,1.13888969 4.18001308,1.47059617 L4.81278515,4.57116622 L19.9257777,4.57116622 C20.17697,4.57116622 20.414389,4.685731 20.5710388,4.88251035 C20.7274335,5.07899213 20.7856724,5.33622087 20.7290914,5.58107917 L18.8054234,13.9077917 C18.7188728,14.2823909 18.3860611,14.5470164 18.0021522,14.5470164 L6.46014406,14.5470164 C6.06662786,14.5470164 5.72777968,14.2686601 5.651389,13.8825407 L3.23196794,1.47059617 L0.485516527,0.999084041 C-0.184868089,0.910438745 -0.110655035,-0.0243524754 0.401118677,0.000486172184 Z M19.704,5.571 L5.05,5.571 L6.605,13.547 L17.862,13.547 L19.704,5.571 Z" id="Shape"></path>
        </g>
    </g>
</svg>