<svg width="16" height="21" viewBox="0 0 16 21" fill="none" xmlns="http://www.w3.org/2000/svg">
<path fill-rule="evenodd" clip-rule="evenodd" d="M6.69233 0C10.1595 0 12.9804 2.8208 12.9804 6.28811C12.9804 9.75542 10.1595 12.5762 6.69233 12.5762C3.22511 12.5762 0.404217 9.75542 0.404217 6.28811C0.404217 2.8208 3.22511 0 6.69233 0ZM6.69233 1C3.77736 1 1.40422 3.37312 1.40422 6.28811C1.40422 9.2031 3.77736 11.5762 6.69233 11.5762C9.60729 11.5762 11.9804 9.2031 11.9804 6.28811C11.9804 3.37312 9.60729 1 6.69233 1ZM6.69233 15.5149C4.37329 15.5149 2.13629 16.1982 0.222191 17.4914C-0.00870861 17.6474 -0.0694777 17.961 0.086472 18.1919C0.242562 18.4229 0.55615 18.4837 0.787091 18.3276C2.53353 17.1478 4.57586 16.524 6.69233 16.524C9.98821 16.524 13.0374 18.0224 15.0552 20.6336C15.1515 20.7583 15.2983 20.8297 15.455 20.8297C15.5666 20.8297 15.674 20.7932 15.7629 20.7246C15.9836 20.5541 16.0242 20.2372 15.8539 20.0167C13.6426 17.1553 10.3044 15.5149 6.69233 15.5149ZM6.69233 16.0149C10.1495 16.0149 13.3417 17.5835 15.4582 20.3224L15.455 20.3297C13.3384 17.5942 10.1431 16.024 6.69233 16.024C4.60657 16.024 2.5884 16.603 0.833135 17.7013L0.507151 17.9133C0.505028 17.9148 0.502295 17.9142 0.5008 17.912L0.502084 17.9057C2.33344 16.6685 4.47295 16.0149 6.69233 16.0149Z" fill="black"/>
</svg>
